<svg width="516" height="277" viewBox="0 0 516 277" fill="none" xmlns="http://www.w3.org/2000/svg">
<path d="M157.435 137.586C156.015 134.983 154.063 133.001 151.578 131.641C149.094 130.28 146.195 129.6 142.882 129.6C139.215 129.6 135.961 130.428 133.122 132.084C130.282 133.741 128.064 136.107 126.467 139.183C124.869 142.259 124.071 145.809 124.071 149.831C124.071 153.972 124.869 157.581 126.467 160.657C128.123 163.733 130.4 166.099 133.299 167.755C136.198 169.412 139.57 170.24 143.415 170.24C148.147 170.24 152.022 168.998 155.039 166.513C158.056 163.969 160.037 160.45 160.984 155.954H139.688V146.459H173.229V157.285C172.401 161.603 170.626 165.596 167.905 169.264C165.184 172.931 161.664 175.889 157.346 178.137C153.087 180.326 148.295 181.42 142.971 181.42C136.996 181.42 131.584 180.089 126.733 177.427C121.941 174.706 118.155 170.95 115.375 166.158C112.654 161.366 111.293 155.924 111.293 149.831C111.293 143.738 112.654 138.296 115.375 133.504C118.155 128.653 121.941 124.897 126.733 122.235C131.584 119.514 136.967 118.153 142.882 118.153C149.863 118.153 155.926 119.869 161.073 123.3C166.219 126.672 169.769 131.434 171.721 137.586H157.435ZM204.249 181.686C199.516 181.686 195.257 180.651 191.471 178.581C187.685 176.451 184.698 173.464 182.509 169.619C180.379 165.774 179.314 161.337 179.314 156.309C179.314 151.28 180.409 146.844 182.598 142.999C184.845 139.154 187.892 136.196 191.737 134.125C195.582 131.996 199.871 130.931 204.603 130.931C209.336 130.931 213.625 131.996 217.47 134.125C221.315 136.196 224.332 139.154 226.521 142.999C228.769 146.844 229.893 151.28 229.893 156.309C229.893 161.337 228.739 165.774 226.432 169.619C224.184 173.464 221.108 176.451 217.204 178.581C213.359 180.651 209.04 181.686 204.249 181.686ZM204.249 170.861C206.496 170.861 208.596 170.329 210.549 169.264C212.56 168.14 214.157 166.483 215.34 164.295C216.523 162.106 217.115 159.444 217.115 156.309C217.115 151.635 215.873 148.056 213.388 145.572C210.963 143.028 207.975 141.756 204.426 141.756C200.877 141.756 197.889 143.028 195.464 145.572C193.098 148.056 191.915 151.635 191.915 156.309C191.915 160.982 193.068 164.59 195.375 167.134C197.741 169.619 200.699 170.861 204.249 170.861ZM260.834 181.686C256.101 181.686 251.842 180.651 248.056 178.581C244.27 176.451 241.283 173.464 239.094 169.619C236.964 165.774 235.899 161.337 235.899 156.309C235.899 151.28 236.994 146.844 239.183 142.999C241.43 139.154 244.477 136.196 248.322 134.125C252.167 131.996 256.456 130.931 261.188 130.931C265.921 130.931 270.21 131.996 274.055 134.125C277.9 136.196 280.917 139.154 283.106 142.999C285.354 146.844 286.478 151.28 286.478 156.309C286.478 161.337 285.324 165.774 283.017 169.619C280.769 173.464 277.693 176.451 273.789 178.581C269.944 180.651 265.625 181.686 260.834 181.686ZM260.834 170.861C263.081 170.861 265.181 170.329 267.134 169.264C269.145 168.14 270.742 166.483 271.925 164.295C273.108 162.106 273.7 159.444 273.7 156.309C273.7 151.635 272.458 148.056 269.973 145.572C267.548 143.028 264.56 141.756 261.011 141.756C257.462 141.756 254.474 143.028 252.049 145.572C249.683 148.056 248.5 151.635 248.5 156.309C248.5 160.982 249.653 164.59 251.96 167.134C254.326 169.619 257.284 170.861 260.834 170.861ZM314.845 130.931C318.513 130.931 321.737 131.67 324.517 133.149C327.298 134.569 329.486 136.432 331.084 138.739V131.729H343.595V181.243C343.595 185.798 342.678 189.85 340.844 193.399C339.01 197.008 336.26 199.847 332.592 201.918C328.924 204.047 324.488 205.112 319.282 205.112C312.302 205.112 306.563 203.485 302.068 200.232C297.631 196.978 295.117 192.542 294.525 186.922H306.859C307.51 189.17 308.9 190.944 311.03 192.246C313.218 193.606 315.851 194.287 318.927 194.287C322.536 194.287 325.464 193.192 327.712 191.004C329.96 188.874 331.084 185.62 331.084 181.243V173.612C329.486 175.919 327.268 177.841 324.428 179.379C321.648 180.917 318.454 181.686 314.845 181.686C310.704 181.686 306.918 180.622 303.487 178.492C300.056 176.362 297.335 173.375 295.324 169.53C293.372 165.626 292.396 161.159 292.396 156.131C292.396 151.162 293.372 146.755 295.324 142.91C297.335 139.065 300.027 136.107 303.399 134.037C306.83 131.966 310.645 130.931 314.845 130.931ZM331.084 156.309C331.084 153.292 330.492 150.718 329.309 148.589C328.126 146.4 326.529 144.744 324.517 143.62C322.506 142.437 320.347 141.845 318.04 141.845C315.733 141.845 313.603 142.407 311.651 143.531C309.699 144.655 308.102 146.311 306.859 148.5C305.676 150.63 305.085 153.173 305.085 156.131C305.085 159.089 305.676 161.692 306.859 163.94C308.102 166.129 309.699 167.814 311.651 168.998C313.662 170.181 315.792 170.772 318.04 170.772C320.347 170.772 322.506 170.21 324.517 169.086C326.529 167.903 328.126 166.247 329.309 164.117C330.492 161.928 331.084 159.326 331.084 156.309ZM368.151 115.225V180.888H355.728V115.225H368.151ZM426.122 155.244C426.122 157.019 426.004 158.616 425.767 160.035H389.83C390.126 163.585 391.368 166.365 393.557 168.376C395.746 170.388 398.437 171.393 401.632 171.393C406.246 171.393 409.529 169.412 411.481 165.448H424.88C423.46 170.181 420.739 174.085 416.716 177.161C412.694 180.178 407.754 181.686 401.898 181.686C397.165 181.686 392.906 180.651 389.12 178.581C385.393 176.451 382.465 173.464 380.335 169.619C378.265 165.774 377.23 161.337 377.23 156.309C377.23 151.221 378.265 146.755 380.335 142.91C382.406 139.065 385.305 136.107 389.031 134.037C392.758 131.966 397.047 130.931 401.898 130.931C406.571 130.931 410.742 131.937 414.409 133.948C418.136 135.959 421.005 138.828 423.016 142.555C425.087 146.223 426.122 150.452 426.122 155.244ZM413.256 151.695C413.196 148.5 412.043 145.956 409.795 144.063C407.547 142.111 404.796 141.135 401.543 141.135C398.467 141.135 395.864 142.082 393.734 143.975C391.664 145.809 390.392 148.382 389.919 151.695H413.256Z" fill="#47505E"/>
<rect x="6" y="34.9042" width="85.83" height="23.1647" rx="7.6748" transform="rotate(-10 6 34.9042)" fill="#1368B8"/>
<path d="M21.494 43.6966C21.3649 42.9643 21.4131 42.2813 21.6386 41.6477C21.87 41.0058 22.2418 40.4747 22.7542 40.0545C23.2724 39.6259 23.8871 39.3489 24.5981 39.2235C25.4299 39.0768 26.1963 39.1616 26.8972 39.4779C27.5981 39.7942 28.1394 40.3072 28.5212 41.017L26.8041 41.3197C26.5708 40.9943 26.282 40.7703 25.9378 40.6477C25.6008 40.5239 25.2296 40.4977 24.8243 40.5692C24.3906 40.6457 24.0213 40.8171 23.7164 41.0834C23.4173 41.3414 23.2044 41.6722 23.0776 42.0758C22.958 42.4781 22.942 42.9281 23.0298 43.4258C23.1163 43.9164 23.2852 44.3338 23.5365 44.678C23.7936 45.0139 24.1075 45.2555 24.478 45.4027C24.8544 45.5416 25.2594 45.5729 25.6931 45.4964C26.0984 45.4249 26.4382 45.2734 26.7126 45.0417C26.9929 44.8017 27.187 44.4889 27.2949 44.1033L29.012 43.8005C28.8973 44.6052 28.5647 45.276 28.0142 45.8129C27.4696 46.3414 26.7778 46.6797 25.9389 46.8276C25.2279 46.953 24.5562 46.9065 23.9239 46.6881C23.2974 46.4613 22.7663 46.0894 22.3306 45.5724C21.902 45.0542 21.6231 44.4289 21.494 43.6966ZM34.5404 45.245L32.3865 42.6337L31.6826 42.7578L32.1941 45.6587L30.701 45.922L29.3884 38.4778L32.1826 37.9851C32.7585 37.8836 33.2673 37.9002 33.7089 38.0349C34.1493 38.1625 34.4997 38.383 34.7602 38.6963C35.0266 39.0012 35.1974 39.3669 35.2726 39.7935C35.3591 40.2841 35.2953 40.7536 35.0811 41.2019C34.8656 41.6431 34.4902 41.9878 33.9549 42.2362L36.2681 44.9403L34.5404 45.245ZM31.4851 41.638L32.7329 41.418C33.1382 41.3465 33.4234 41.1972 33.5887 40.9702C33.7526 40.736 33.8039 40.4447 33.7425 40.0963C33.6823 39.755 33.5364 39.5095 33.3047 39.3598C33.0718 39.2029 32.7527 39.1602 32.3474 39.2317L31.0996 39.4517L31.4851 41.638ZM41.0018 44.1826C40.305 44.3055 39.6363 44.2548 38.9956 44.0305C38.3549 43.8063 37.8132 43.4363 37.3704 42.9205C36.9263 42.3977 36.6397 41.7701 36.5105 41.0378C36.3827 40.3126 36.4386 39.6319 36.6783 38.9958C36.9168 38.3526 37.2987 37.8161 37.8241 37.3863C38.3494 36.9564 38.9605 36.68 39.6573 36.5572C40.3611 36.4331 41.0299 36.4838 41.6635 36.7093C42.3041 36.9335 42.843 37.3077 43.2799 37.8318C43.7228 38.3475 44.0081 38.968 44.136 39.6932C44.2651 40.4255 44.2104 41.1133 43.972 41.7565C43.7393 42.3913 43.3604 42.9237 42.835 43.3535C42.3097 43.7834 41.6986 44.0598 41.0018 44.1826ZM40.7668 42.8495C41.2147 42.7705 41.5917 42.6014 41.8979 42.3421C42.2028 42.0758 42.4181 41.7372 42.5436 41.3266C42.6691 40.9159 42.688 40.4617 42.6002 39.964C42.5125 39.4663 42.34 39.0495 42.0829 38.7137C41.8244 38.3707 41.507 38.1297 41.1307 37.9908C40.7543 37.8519 40.3421 37.822 39.8942 37.901C39.4463 37.9799 39.0657 38.1497 38.7524 38.4102C38.4462 38.6694 38.2304 39.0044 38.1048 39.4151C37.9781 39.8187 37.9585 40.2693 38.0463 40.767C38.1341 41.2647 38.3071 41.685 38.5656 42.028C38.824 42.371 39.142 42.6155 39.5196 42.7615C39.9031 42.8991 40.3188 42.9285 40.7668 42.8495ZM48.4903 42.8622C47.9713 42.9537 47.4863 42.9476 47.0355 42.8438C46.5918 42.7388 46.2196 42.5405 45.9189 42.2489C45.6183 41.9574 45.4243 41.5847 45.3369 41.1309L46.9367 40.8489C47.0119 41.1508 47.1612 41.3738 47.3845 41.5177C47.6149 41.6603 47.9008 41.7015 48.242 41.6414C48.5904 41.5799 48.8497 41.4499 49.02 41.2513C49.189 41.0455 49.2496 40.8076 49.202 40.5374C49.1631 40.317 49.0636 40.1476 48.9035 40.0292C48.7433 39.9108 48.5532 39.8307 48.3333 39.7889C48.1191 39.7386 47.8255 39.6951 47.4525 39.6583C46.9439 39.6013 46.5249 39.5322 46.1953 39.4511C45.8717 39.3615 45.5752 39.1975 45.3059 38.9591C45.0424 38.7123 44.8693 38.3543 44.7866 37.885C44.7088 37.4442 44.7513 37.0408 44.9141 36.6749C45.0768 36.309 45.3422 36.0056 45.7103 35.7648C46.0771 35.5168 46.5165 35.3477 47.0284 35.2574C47.7963 35.122 48.4516 35.2008 48.9944 35.4936C49.5431 35.7781 49.9012 36.2501 50.0689 36.9096L48.4265 37.1992C48.3671 36.9458 48.2199 36.7555 47.9849 36.6283C47.7557 36.4928 47.4741 36.4545 47.1399 36.5134C46.8484 36.5648 46.6269 36.6808 46.4755 36.8615C46.3312 37.0409 46.2841 37.2728 46.3343 37.5572C46.3694 37.7562 46.4628 37.912 46.6146 38.0246C46.7723 38.1287 46.9546 38.2065 47.1616 38.258C47.3745 38.3011 47.6681 38.3446 48.0424 38.3886C48.5509 38.4456 48.9706 38.5182 49.3014 38.6065C49.6322 38.6948 49.9329 38.8617 50.2034 39.1072C50.474 39.3527 50.65 39.7066 50.7315 40.1687C50.8017 40.5669 50.7638 40.9548 50.6178 41.3324C50.4718 41.7101 50.2179 42.0371 49.8561 42.3135C49.493 42.5828 49.0378 42.7657 48.4903 42.8622ZM54.9892 41.7163C54.4702 41.8078 53.9853 41.8016 53.5345 41.6979C53.0907 41.5928 52.7185 41.3945 52.4179 41.103C52.1172 40.8114 51.9232 40.4388 51.8359 39.985L53.4356 39.7029C53.5109 40.0049 53.6601 40.2278 53.8834 40.3717C54.1139 40.5144 54.3997 40.5556 54.741 40.4954C55.0894 40.434 55.3487 40.304 55.5189 40.1053C55.6879 39.8996 55.7486 39.6616 55.701 39.3914C55.6621 39.171 55.5626 39.0016 55.4024 38.8833C55.2423 38.7649 55.0522 38.6848 54.8322 38.6429C54.6181 38.5927 54.3245 38.5492 53.9515 38.5123C53.4429 38.4554 53.0239 38.3863 52.6943 38.3051C52.3706 38.2156 52.0741 38.0516 51.8048 37.8132C51.5414 37.5664 51.3683 37.2083 51.2855 36.7391C51.2078 36.2983 51.2503 35.8949 51.413 35.529C51.5758 35.1631 51.8412 34.8597 52.2093 34.6188C52.5761 34.3709 53.0154 34.2018 53.5274 34.1115C54.2952 33.9761 54.9506 34.0548 55.4934 34.3477C56.0421 34.6321 56.4002 35.1041 56.5678 35.7637L54.9254 36.0533C54.8661 35.7998 54.7189 35.6095 54.4839 35.4824C54.2547 35.3468 53.973 35.3085 53.6388 35.3674C53.3473 35.4188 53.1259 35.5349 52.9745 35.7155C52.8301 35.8949 52.7831 36.1268 52.8332 36.4112C52.8683 36.6103 52.9618 36.7661 53.1136 36.8786C53.2712 36.9828 53.4536 37.0606 53.6606 37.1121C53.8734 37.1552 54.167 37.1987 54.5413 37.2427C55.0499 37.2996 55.4696 37.3722 55.8004 37.4605C56.1312 37.5488 56.4318 37.7157 56.7024 37.9613C56.9729 38.2068 57.149 38.5606 57.2305 39.0228C57.3007 39.4209 57.2628 39.8088 57.1167 40.1865C56.9707 40.5641 56.7168 40.8911 56.355 41.1675C55.992 41.4368 55.5367 41.6197 54.9892 41.7163ZM62.4549 36.3861C62.8882 36.3904 63.27 36.5393 63.6003 36.8329C63.9307 37.1266 64.1347 37.4938 64.2125 37.9346C64.2827 38.3328 64.2452 38.7023 64.1 39.0431C63.9607 39.3756 63.7212 39.6597 63.3816 39.8956C63.042 40.1314 62.6197 40.2938 62.1149 40.3828L58.9048 40.9489L57.5922 33.5047L60.6637 32.9631C61.1685 32.8741 61.6166 32.8794 62.0081 32.979C62.4066 33.0773 62.724 33.256 62.9603 33.5149C63.2036 33.7725 63.3579 34.0862 63.4231 34.456C63.4996 34.8897 63.4462 35.273 63.263 35.6058C63.0869 35.9375 62.8175 36.1976 62.4549 36.3861ZM59.6269 36.313L60.992 36.0723C61.3475 36.0096 61.6074 35.8831 61.7718 35.6928C61.9349 35.4954 61.9902 35.2474 61.9375 34.9488C61.8849 34.6502 61.7481 34.4361 61.5273 34.3064C61.3065 34.1767 61.0184 34.1432 60.6629 34.2059L59.2978 34.4466L59.6269 36.313ZM61.6873 39.2046C62.0499 39.1407 62.3157 39.0059 62.4847 38.8001C62.6608 38.5931 62.7212 38.3332 62.6661 38.0204C62.6096 37.7004 62.4591 37.4704 62.2145 37.3302C61.9686 37.183 61.6643 37.1413 61.3017 37.2053L59.83 37.4648L60.1835 39.4698L61.6873 39.2046ZM70.0723 37.5172L67.1075 38.04L66.867 39.5449L65.2992 39.8213L66.6617 31.8945L68.4001 31.588L72.3914 38.5708L70.813 38.8491L70.0723 37.5172ZM69.4564 36.3942L67.8302 33.4699L67.3021 36.774L69.4564 36.3942ZM77.2314 37.7174L75.0775 35.1061L74.3736 35.2302L74.8851 38.1311L73.392 38.3944L72.0794 30.9502L74.8736 30.4575C75.4496 30.356 75.9583 30.3726 76.3999 30.5073C76.8403 30.6349 77.1908 30.8554 77.4513 31.1687C77.7176 31.4736 77.8884 31.8393 77.9636 32.2659C78.0502 32.7565 77.9863 33.226 77.7721 33.6743C77.5567 34.1155 77.1813 34.4603 76.6459 34.7086L78.9591 37.4127L77.2314 37.7174ZM74.1762 34.1104L75.424 33.8904C75.8292 33.8189 76.1145 33.6697 76.2797 33.4426C76.4437 33.2084 76.495 32.9171 76.4335 32.5687C76.3734 32.2275 76.2274 31.9819 75.9958 31.8322C75.7628 31.6753 75.4437 31.6326 75.0385 31.7041L73.7907 31.9241L74.1762 34.1104Z" fill="#6AC4F7"/>
<rect x="237.125" y="55.2586" width="66.0033" height="23.0244" rx="7.6748" fill="#E52D92"/>
<path d="M259.386 69.1264H261.876V70.3285H257.869V62.7695H259.386V69.1264ZM266.349 70.4043C265.641 70.4043 264.991 70.2383 264.399 69.9062C263.807 69.5741 263.338 69.1156 262.992 68.5308C262.645 67.9388 262.472 67.271 262.472 66.5274C262.472 65.791 262.645 65.1304 262.992 64.5456C263.338 63.9536 263.807 63.4915 264.399 63.1594C264.991 62.8273 265.641 62.6613 266.349 62.6613C267.064 62.6613 267.713 62.8273 268.298 63.1594C268.89 63.4915 269.356 63.9536 269.695 64.5456C270.042 65.1304 270.215 65.791 270.215 66.5274C270.215 67.271 270.042 67.9388 269.695 68.5308C269.356 69.1156 268.89 69.5741 268.298 69.9062C267.706 70.2383 267.056 70.4043 266.349 70.4043ZM266.349 69.0506C266.804 69.0506 267.204 68.9496 267.551 68.7474C267.897 68.538 268.168 68.242 268.363 67.8594C268.558 67.4768 268.655 67.0328 268.655 66.5274C268.655 66.022 268.558 65.5816 268.363 65.2062C268.168 64.8235 267.897 64.5311 267.551 64.329C267.204 64.1268 266.804 64.0258 266.349 64.0258C265.894 64.0258 265.49 64.1268 265.136 64.329C264.789 64.5311 264.519 64.8235 264.324 65.2062C264.129 65.5816 264.031 66.022 264.031 66.5274C264.031 67.0328 264.129 67.4768 264.324 67.8594C264.519 68.242 264.789 68.538 265.136 68.7474C265.49 68.9496 265.894 69.0506 266.349 69.0506ZM274.852 70.4043C274.144 70.4043 273.494 70.2383 272.902 69.9062C272.31 69.5741 271.841 69.1156 271.494 68.5308C271.148 67.9388 270.975 67.271 270.975 66.5274C270.975 65.791 271.148 65.1304 271.494 64.5456C271.841 63.9536 272.31 63.4915 272.902 63.1594C273.494 62.8273 274.144 62.6613 274.852 62.6613C275.566 62.6613 276.216 62.8273 276.801 63.1594C277.393 63.4915 277.859 63.9536 278.198 64.5456C278.544 65.1304 278.718 65.791 278.718 66.5274C278.718 67.271 278.544 67.9388 278.198 68.5308C277.859 69.1156 277.393 69.5741 276.801 69.9062C276.209 70.2383 275.559 70.4043 274.852 70.4043ZM274.852 69.0506C275.306 69.0506 275.707 68.9496 276.054 68.7474C276.4 68.538 276.671 68.242 276.866 67.8594C277.061 67.4768 277.158 67.0328 277.158 66.5274C277.158 66.022 277.061 65.5816 276.866 65.2062C276.671 64.8235 276.4 64.5311 276.054 64.329C275.707 64.1268 275.306 64.0258 274.852 64.0258C274.397 64.0258 273.992 64.1268 273.639 64.329C273.292 64.5311 273.021 64.8235 272.826 65.2062C272.632 65.5816 272.534 66.022 272.534 66.5274C272.534 67.0328 272.632 67.4768 272.826 67.8594C273.021 68.242 273.292 68.538 273.639 68.7474C273.992 68.9496 274.397 69.0506 274.852 69.0506ZM285.358 65.1087C285.358 65.513 285.26 65.892 285.065 66.2458C284.878 66.5996 284.578 66.8847 284.167 67.1013C283.762 67.3179 283.25 67.4262 282.629 67.4262H281.362V70.3285H279.846V62.7695H282.629C283.214 62.7695 283.712 62.8706 284.123 63.0728C284.535 63.2749 284.842 63.5529 285.044 63.9066C285.253 64.2604 285.358 64.6611 285.358 65.1087ZM282.564 66.2025C282.983 66.2025 283.293 66.1086 283.495 65.9209C283.697 65.726 283.798 65.4553 283.798 65.1087C283.798 64.3723 283.387 64.0041 282.564 64.0041H281.362V66.2025H282.564Z" fill="#F7B2F0"/>
<rect x="392.154" y="238.11" width="85.83" height="23.1647" rx="7.6748" transform="rotate(-20 392.154 238.11)" fill="#48EDBC"/>
<path d="M415.863 241.56C415.609 240.861 415.537 240.18 415.649 239.517C415.766 238.844 416.04 238.257 416.471 237.754C416.907 237.242 417.465 236.862 418.143 236.615C418.937 236.326 419.706 236.277 420.451 236.467C421.197 236.656 421.819 237.068 422.318 237.7L420.68 238.297C420.393 238.017 420.07 237.846 419.71 237.785C419.356 237.722 418.986 237.761 418.6 237.901C418.186 238.052 417.852 238.285 417.598 238.6C417.348 238.906 417.196 239.269 417.141 239.688C417.093 240.105 417.155 240.551 417.328 241.026C417.499 241.494 417.737 241.876 418.045 242.171C418.356 242.458 418.707 242.641 419.098 242.722C419.493 242.793 419.897 242.753 420.311 242.603C420.697 242.462 421.006 242.254 421.236 241.978C421.47 241.693 421.607 241.351 421.646 240.953L423.285 240.356C423.311 241.169 423.1 241.887 422.652 242.511C422.207 243.127 421.584 243.58 420.784 243.871C420.105 244.118 419.436 244.189 418.775 244.084C418.119 243.969 417.531 243.695 417.013 243.262C416.5 242.826 416.117 242.258 415.863 241.56ZM428.639 241.023C427.975 241.265 427.307 241.332 426.637 241.222C425.967 241.112 425.37 240.842 424.844 240.411C424.316 239.973 423.925 239.405 423.67 238.706C423.418 238.014 423.355 237.334 423.481 236.666C423.604 235.991 423.887 235.397 424.33 234.882C424.773 234.368 425.326 233.989 425.991 233.747C426.663 233.503 427.33 233.437 427.993 233.549C428.663 233.658 429.259 233.933 429.78 234.374C430.306 234.805 430.695 235.366 430.946 236.058C431.201 236.757 431.266 237.444 431.143 238.118C431.024 238.784 430.744 239.374 430.301 239.889C429.858 240.403 429.304 240.781 428.639 241.023ZM428.177 239.751C428.604 239.596 428.946 239.364 429.202 239.055C429.456 238.74 429.61 238.369 429.662 237.943C429.714 237.517 429.654 237.066 429.481 236.591C429.308 236.117 429.066 235.736 428.754 235.45C428.44 235.157 428.086 234.975 427.691 234.903C427.296 234.832 426.885 234.874 426.458 235.03C426.03 235.185 425.685 235.418 425.422 235.729C425.165 236.038 425.011 236.405 424.959 236.831C424.904 237.251 424.963 237.698 425.136 238.173C425.309 238.648 425.552 239.032 425.866 239.325C426.18 239.618 426.536 239.803 426.933 239.881C427.335 239.95 427.749 239.907 428.177 239.751ZM433.204 231.237C433.95 230.966 434.658 230.873 435.327 230.96C436.004 231.044 436.593 231.302 437.096 231.734C437.603 232.156 437.986 232.724 438.245 233.436C438.505 234.148 438.576 234.829 438.459 235.479C438.346 236.119 438.058 236.689 437.594 237.188C437.137 237.685 436.536 238.069 435.79 238.34L433.306 239.244L430.721 232.141L433.204 231.237ZM435.298 237.148C436.044 236.876 436.547 236.463 436.806 235.908C437.065 235.352 437.059 234.705 436.79 233.966C436.521 233.226 436.108 232.724 435.55 232.458C434.99 232.185 434.337 232.185 433.59 232.457L432.583 232.823L434.29 237.515L435.298 237.148ZM439.44 228.968L442.026 236.071L440.601 236.589L438.016 229.486L439.44 228.968ZM449.508 233.347L448.084 233.866L443.084 230.165L444.858 235.04L443.433 235.558L440.844 228.445L442.269 227.927L447.273 231.637L445.495 226.752L446.919 226.234L449.508 233.347ZM454.055 226.069C453.783 225.829 453.477 225.683 453.135 225.631C452.793 225.579 452.432 225.622 452.052 225.76C451.632 225.913 451.293 226.144 451.037 226.452C450.78 226.761 450.624 227.125 450.57 227.544C450.515 227.964 450.571 228.404 450.739 228.866C450.912 229.34 451.154 229.721 451.466 230.007C451.784 230.291 452.144 230.467 452.546 230.536C452.948 230.605 453.369 230.559 453.81 230.399C454.352 230.201 454.745 229.897 454.987 229.486C455.227 229.068 455.307 228.582 455.228 228.027L452.786 228.916L452.39 227.827L456.236 226.427L456.688 227.668C456.774 228.198 456.737 228.73 456.578 229.264C456.419 229.799 456.139 230.285 455.737 230.723C455.34 231.152 454.836 231.477 454.226 231.699C453.54 231.949 452.864 232.022 452.197 231.919C451.534 231.807 450.943 231.534 450.424 231.101C449.912 230.665 449.528 230.098 449.274 229.399C449.02 228.7 448.949 228.019 449.061 227.356C449.177 226.684 449.454 226.095 449.893 225.59C450.336 225.075 450.896 224.694 451.575 224.447C452.375 224.156 453.142 224.1 453.875 224.278C454.606 224.45 455.212 224.848 455.693 225.472L454.055 226.069Z" fill="#177274"/>
<rect x="167.916" y="26.7924" width="55.2586" height="23.0244" rx="7.6748" transform="rotate(-12 167.916 26.7924)" fill="#F52E08"/>
<path d="M198.596 27.9499L200.168 35.3437L198.685 35.6589L198.016 32.5128L194.849 33.186L195.518 36.3321L194.035 36.6473L192.463 29.2535L193.946 28.9383L194.592 31.9785L197.76 31.3052L197.113 28.2651L198.596 27.9499ZM201.539 27.3244L203.111 34.7182L201.628 35.0334L200.056 27.6396L201.539 27.3244Z" fill="#FFC1C2"/>
<rect x="171.121" y="230.244" width="67.5383" height="23.0244" rx="7.6748" fill="#F58602"/>
<path d="M196.586 237.755V238.979H193.435V240.917H195.85V242.119H193.435V245.314H191.918V237.755H196.586ZM201.17 245.39C200.462 245.39 199.812 245.224 199.22 244.892C198.628 244.56 198.159 244.101 197.813 243.516C197.466 242.924 197.293 242.257 197.293 241.513C197.293 240.777 197.466 240.116 197.813 239.531C198.159 238.939 198.628 238.477 199.22 238.145C199.812 237.813 200.462 237.647 201.17 237.647C201.884 237.647 202.534 237.813 203.119 238.145C203.711 238.477 204.177 238.939 204.516 239.531C204.863 240.116 205.036 240.777 205.036 241.513C205.036 242.257 204.863 242.924 204.516 243.516C204.177 244.101 203.711 244.56 203.119 244.892C202.527 245.224 201.877 245.39 201.17 245.39ZM201.17 244.036C201.625 244.036 202.025 243.935 202.372 243.733C202.718 243.524 202.989 243.228 203.184 242.845C203.379 242.462 203.476 242.018 203.476 241.513C203.476 241.008 203.379 240.567 203.184 240.192C202.989 239.809 202.718 239.517 202.372 239.315C202.025 239.112 201.625 239.011 201.17 239.011C200.715 239.011 200.311 239.112 199.957 239.315C199.61 239.517 199.34 239.809 199.145 240.192C198.95 240.567 198.852 241.008 198.852 241.513C198.852 242.018 198.95 242.462 199.145 242.845C199.34 243.228 199.61 243.524 199.957 243.733C200.311 243.935 200.715 244.036 201.17 244.036ZM212.629 245.314H211.113L207.68 240.127V245.314H206.164V237.744H207.68L211.113 242.942V237.744H212.629V245.314ZM219.271 237.755V238.979H217.257V245.314H215.741V238.979H213.727V237.755H219.271Z" fill="#F8DF6E"/>
<rect x="289.795" width="85.83" height="23.1647" rx="7.6748" transform="rotate(5 289.795 0)" fill="#3EA231"/>
<path d="M302.486 12.5034C302.551 11.7626 302.774 11.1154 303.156 10.5618C303.546 10.0016 304.042 9.58483 304.646 9.31153C305.258 9.03165 305.923 8.92318 306.642 8.9861C307.484 9.05972 308.202 9.33998 308.797 9.82689C309.392 10.3138 309.782 10.9494 309.967 11.7338L308.231 11.5819C308.089 11.2072 307.868 10.9161 307.568 10.7086C307.274 10.5017 306.922 10.3803 306.512 10.3445C306.074 10.3061 305.673 10.3761 305.309 10.5545C304.954 10.7263 304.662 10.9907 304.435 11.3477C304.216 11.7053 304.084 12.1359 304.04 12.6393C303.996 13.1356 304.051 13.5825 304.205 13.98C304.367 14.371 304.607 14.6856 304.927 14.9237C305.255 15.1553 305.638 15.2903 306.076 15.3287C306.486 15.3645 306.854 15.3061 307.179 15.1533C307.512 14.994 307.78 14.7421 307.984 14.3976L309.721 14.5496C309.402 15.2971 308.907 15.859 308.236 16.2351C307.574 16.6047 306.818 16.7524 305.969 16.6781C305.25 16.6152 304.613 16.3964 304.059 16.0218C303.513 15.6406 303.096 15.144 302.809 14.5318C302.529 13.9203 302.421 13.2442 302.486 12.5034ZM314.687 17.3756L313.283 14.2959L312.571 14.2336L312.314 17.168L310.803 17.0359L311.462 9.50564L314.289 9.75293C314.871 9.8039 315.359 9.9516 315.75 10.196C316.143 10.4333 316.424 10.7369 316.595 11.107C316.773 11.4704 316.843 11.8679 316.805 12.2995C316.762 12.7957 316.579 13.2327 316.256 13.6103C315.934 13.9807 315.482 14.2165 314.9 14.3178L316.435 17.5285L314.687 17.3756ZM312.67 13.1008L313.932 13.2112C314.342 13.2471 314.656 13.1768 314.874 13.0002C315.093 12.8164 315.218 12.5483 315.249 12.1959C315.279 11.8507 315.202 11.5758 315.017 11.3712C314.833 11.1594 314.535 11.0355 314.125 10.9997L312.863 10.8892L312.67 13.1008ZM321.203 18.0218C320.499 17.9602 319.866 17.7381 319.305 17.3557C318.744 16.9732 318.317 16.4756 318.022 15.8629C317.729 15.2429 317.614 14.5625 317.679 13.8217C317.743 13.0881 317.974 12.4452 318.37 11.8928C318.767 11.3332 319.274 10.9138 319.893 10.6346C320.512 10.3553 321.174 10.2466 321.878 10.3082C322.59 10.3705 323.223 10.5926 323.777 10.9744C324.338 11.3568 324.761 11.8577 325.048 12.477C325.342 13.0898 325.457 13.763 325.393 14.4966C325.328 15.2374 325.097 15.8876 324.7 16.4471C324.311 17.0001 323.808 17.4162 323.189 17.6955C322.57 17.9747 321.908 18.0835 321.203 18.0218ZM321.321 16.6733C321.775 16.7129 322.183 16.6472 322.545 16.476C322.909 16.2976 323.204 16.0263 323.432 15.6621C323.659 15.298 323.795 14.8641 323.839 14.3607C323.883 13.8572 323.825 13.41 323.663 13.019C323.502 12.6208 323.258 12.306 322.93 12.0744C322.603 11.8428 322.213 11.7072 321.759 11.6675C321.306 11.6279 320.895 11.6934 320.525 11.8639C320.162 12.0351 319.867 12.3028 319.639 12.667C319.412 13.024 319.277 13.4542 319.233 13.9576C319.189 14.4611 319.247 14.9119 319.408 15.3101C319.569 15.7083 319.813 16.0267 320.14 16.2655C320.474 16.4977 320.868 16.6337 321.321 16.6733ZM328.779 18.6846C328.254 18.6386 327.787 18.5072 327.378 18.2903C326.977 18.074 326.668 17.7861 326.454 17.4267C326.239 17.0673 326.148 16.6571 326.181 16.1961L327.799 16.3377C327.793 16.6489 327.88 16.9028 328.058 17.0996C328.244 17.2971 328.509 17.4109 328.855 17.4411C329.207 17.4719 329.491 17.4134 329.707 17.2656C329.924 17.1106 330.044 16.8965 330.068 16.6232C330.087 16.4002 330.035 16.2108 329.911 16.055C329.787 15.8992 329.624 15.7727 329.422 15.6753C329.228 15.5714 328.956 15.4533 328.605 15.3212C328.129 15.1346 327.742 14.9594 327.445 14.7957C327.155 14.6254 326.911 14.3903 326.713 14.0903C326.522 13.7837 326.448 13.3931 326.489 12.9184C326.528 12.4725 326.674 12.0939 326.926 11.7825C327.177 11.4712 327.512 11.2468 327.93 11.1095C328.349 10.9649 328.817 10.9153 329.335 10.9606C330.111 11.0285 330.724 11.2742 331.173 11.6975C331.629 12.1143 331.853 12.6629 331.844 13.3434L330.183 13.198C330.191 12.9379 330.098 12.7159 329.904 12.5323C329.718 12.342 329.455 12.2321 329.117 12.2026C328.822 12.1768 328.579 12.2315 328.386 12.3668C328.2 12.5028 328.094 12.7146 328.069 13.0023C328.051 13.2036 328.101 13.3783 328.219 13.5263C328.344 13.6677 328.5 13.7901 328.687 13.8934C328.881 13.9901 329.154 14.1081 329.504 14.2475C329.98 14.4341 330.367 14.6129 330.663 14.7838C330.96 14.9547 331.207 15.1937 331.405 15.5009C331.603 15.8081 331.681 16.1955 331.641 16.6629C331.605 17.0657 331.468 17.4306 331.229 17.7576C330.991 18.0845 330.661 18.3347 330.24 18.508C329.819 18.6742 329.332 18.733 328.779 18.6846ZM335.353 19.2597C334.828 19.2138 334.361 19.0824 333.952 18.8654C333.551 18.6491 333.243 18.3613 333.028 18.0018C332.813 17.6424 332.722 17.2322 332.755 16.7713L334.373 16.9129C334.368 17.224 334.454 17.478 334.633 17.6748C334.818 17.8722 335.084 17.986 335.429 18.0162C335.781 18.0471 336.065 17.9886 336.281 17.8408C336.498 17.6858 336.618 17.4716 336.642 17.1983C336.661 16.9754 336.609 16.786 336.485 16.6302C336.361 16.4744 336.198 16.3478 335.996 16.2505C335.803 16.1465 335.53 16.0285 335.179 15.8964C334.703 15.7097 334.316 15.5345 334.019 15.3708C333.729 15.2006 333.485 14.9654 333.287 14.6654C333.096 14.3589 333.022 13.9682 333.063 13.4936C333.102 13.0476 333.248 12.669 333.5 12.3577C333.752 12.0464 334.086 11.822 334.504 11.6846C334.923 11.5401 335.391 11.4904 335.909 11.5357C336.686 11.6037 337.298 11.8493 337.747 12.2727C338.203 12.6895 338.427 13.2381 338.418 13.9186L336.757 13.7732C336.765 13.513 336.672 13.2911 336.478 13.1074C336.292 12.9172 336.029 12.8073 335.691 12.7777C335.397 12.7519 335.153 12.8067 334.96 12.942C334.774 13.0779 334.668 13.2897 334.643 13.5774C334.625 13.7788 334.675 13.9535 334.793 14.1015C334.918 14.2429 335.074 14.3652 335.261 14.4685C335.455 14.5653 335.728 14.6833 336.078 14.8226C336.554 15.0093 336.941 15.188 337.238 15.3589C337.534 15.5298 337.781 15.7689 337.979 16.0761C338.177 16.3833 338.256 16.7706 338.215 17.2381C338.179 17.6409 338.042 18.0057 337.804 18.3327C337.565 18.6597 337.235 18.9098 336.814 19.0832C336.394 19.2493 335.906 19.3082 335.353 19.2597ZM343.943 16.0435C344.361 16.1597 344.691 16.4024 344.934 16.7715C345.177 17.1407 345.279 17.5482 345.24 17.9941C345.205 18.3969 345.073 18.7441 344.845 19.0357C344.624 19.3208 344.319 19.5333 343.93 19.6732C343.541 19.8131 343.091 19.8607 342.581 19.816L339.333 19.5319L339.992 12.0017L343.099 12.2735C343.61 12.3182 344.041 12.4393 344.394 12.6368C344.753 12.8349 345.014 13.0896 345.175 13.4009C345.343 13.7127 345.411 14.0557 345.378 14.4297C345.34 14.8684 345.189 15.2248 344.926 15.4989C344.67 15.7737 344.343 15.9552 343.943 16.0435ZM341.231 15.2408L342.612 15.3617C342.971 15.3931 343.255 15.3382 343.463 15.197C343.672 15.0486 343.789 14.8233 343.816 14.5212C343.842 14.2192 343.765 13.9769 343.586 13.7945C343.406 13.6121 343.136 13.5052 342.777 13.4737L341.396 13.3529L341.231 15.2408ZM342.472 18.5673C342.839 18.5993 343.131 18.5379 343.347 18.3829C343.571 18.2285 343.697 17.9931 343.724 17.6767C343.753 17.353 343.667 17.0919 343.467 16.8932C343.267 16.6873 342.984 16.5683 342.618 16.5362L341.129 16.406L340.951 18.4342L342.472 18.5673ZM351.009 19.1075L348.009 18.8451L347.388 20.2366L345.802 20.0978L349.169 12.7937L350.928 12.9476L352.976 20.7255L351.379 20.5858L351.009 19.1075ZM350.704 17.8634L349.89 14.6179L348.525 17.6727L350.704 17.8634ZM357.872 21.1538L356.467 18.074L355.755 18.0118L355.498 20.9462L353.988 20.814L354.647 13.2838L357.473 13.5311C358.056 13.5821 358.543 13.7298 358.935 13.9742C359.327 14.2115 359.609 14.5151 359.779 14.8851C359.958 15.2486 360.028 15.6461 359.99 16.0776C359.947 16.5739 359.764 17.0108 359.441 17.3884C359.118 17.7588 358.666 17.9947 358.085 18.096L359.62 21.3067L357.872 21.1538ZM355.854 16.879L357.117 16.9894C357.527 17.0253 357.841 16.9549 358.059 16.7784C358.278 16.5946 358.403 16.3265 358.434 15.9741C358.464 15.6289 358.387 15.3539 358.202 15.1493C358.017 14.9375 357.72 14.8137 357.31 14.7778L356.048 14.6674L355.854 16.879Z" fill="#ADCD59"/>
<rect x="63.4277" y="236.384" width="85.83" height="23.1647" rx="7.6748" transform="rotate(7 63.4277 236.384)" fill="#A7CBC9"/>
<path d="M75.6758 249.323C75.7664 248.585 76.0122 247.946 76.4131 247.406C76.822 246.859 77.3329 246.46 77.9458 246.208C78.5667 245.95 79.2354 245.865 79.952 245.953C80.7904 246.056 81.4985 246.361 82.0763 246.868C82.6541 247.375 83.0218 248.024 83.1793 248.815L81.4488 248.602C81.3208 248.223 81.1101 247.924 80.8168 247.706C80.5307 247.489 80.1834 247.356 79.775 247.306C79.3378 247.252 78.9346 247.308 78.5651 247.473C78.2036 247.633 77.9033 247.887 77.6641 248.236C77.432 248.585 77.2852 249.011 77.2236 249.513C77.1629 250.007 77.2024 250.456 77.3421 250.858C77.4898 251.255 77.7193 251.578 78.0306 251.827C78.3499 252.07 78.7281 252.218 79.1652 252.272C79.5737 252.322 79.943 252.276 80.2731 252.135C80.6113 251.987 80.8883 251.745 81.1043 251.408L82.8349 251.62C82.4899 252.356 81.9757 252.9 81.2924 253.253C80.617 253.599 79.8566 253.72 79.011 253.616C78.2944 253.528 77.6657 253.288 77.1249 252.894C76.5921 252.494 76.1929 251.983 75.9274 251.361C75.669 250.74 75.5852 250.061 75.6758 249.323ZM87.6994 254.618L86.403 251.491L85.6936 251.404L85.3347 254.327L83.8298 254.143L84.751 246.64L87.5672 246.986C88.1476 247.057 88.6293 247.222 89.0123 247.48C89.3961 247.73 89.6668 248.044 89.8243 248.419C89.9899 248.789 90.0463 249.189 89.9935 249.619C89.9327 250.113 89.7344 250.543 89.3985 250.909C89.0635 251.268 88.6037 251.488 88.0191 251.569L89.4407 254.832L87.6994 254.618ZM85.8322 250.275L87.0898 250.43C87.4983 250.48 87.8147 250.42 88.0391 250.252C88.2644 250.076 88.3986 249.812 88.4417 249.461C88.4839 249.117 88.4161 248.839 88.2384 248.628C88.0615 248.41 87.7688 248.276 87.3604 248.226L86.1028 248.072L85.8322 250.275ZM94.1891 255.491C93.4869 255.405 92.8622 255.161 92.315 254.759C91.7679 254.357 91.358 253.845 91.0853 253.222C90.8135 252.592 90.7229 251.909 90.8135 251.17C90.9033 250.44 91.1558 249.805 91.571 249.267C91.9871 248.721 92.5092 248.32 93.1373 248.063C93.7653 247.805 94.4305 247.719 95.1327 247.806C95.8422 247.893 96.4669 248.137 97.0068 248.538C97.5539 248.939 97.9598 249.455 98.2245 250.084C98.4972 250.706 98.5886 251.383 98.4989 252.114C98.4083 252.852 98.1549 253.494 97.7388 254.039C97.3307 254.578 96.8127 254.977 96.1846 255.234C95.5565 255.492 94.8914 255.577 94.1891 255.491ZM94.3541 254.147C94.8055 254.203 95.2155 254.151 95.5841 253.993C95.9536 253.827 96.2584 253.567 96.4985 253.211C96.7386 252.854 96.8895 252.426 96.9511 251.924C97.0127 251.422 96.9696 250.973 96.8219 250.577C96.675 250.174 96.4419 249.85 96.1226 249.607C95.8033 249.365 95.4179 249.215 94.9665 249.16C94.515 249.105 94.1014 249.156 93.7256 249.313C93.357 249.472 93.0527 249.729 92.8126 250.085C92.5734 250.434 92.4229 250.859 92.3614 251.361C92.2998 251.862 92.3424 252.315 92.4892 252.718C92.6361 253.122 92.8687 253.449 93.1872 253.699C93.5137 253.942 93.9026 254.092 94.3541 254.147ZM101.736 256.418C101.213 256.353 100.751 256.206 100.351 255.975C99.9569 255.745 99.659 255.446 99.4567 255.079C99.2544 254.713 99.1779 254.3 99.227 253.84L100.839 254.038C100.823 254.349 100.901 254.606 101.072 254.809C101.251 255.012 101.512 255.135 101.856 255.178C102.207 255.221 102.493 255.172 102.714 255.032C102.936 254.885 103.063 254.675 103.097 254.403C103.124 254.18 103.078 253.989 102.96 253.829C102.841 253.669 102.683 253.537 102.485 253.433C102.295 253.322 102.027 253.195 101.681 253.05C101.211 252.847 100.83 252.659 100.539 252.485C100.256 252.304 100.02 252.061 99.8323 251.754C99.6525 251.441 99.5916 251.048 99.6497 250.575C99.7043 250.131 99.8628 249.758 100.125 249.455C100.388 249.153 100.731 248.94 101.153 248.818C101.576 248.688 102.046 248.654 102.562 248.718C103.336 248.813 103.939 249.08 104.373 249.518C104.814 249.951 105.019 250.507 104.986 251.187L103.331 250.984C103.348 250.724 103.263 250.499 103.076 250.308C102.896 250.112 102.638 249.993 102.301 249.951C102.007 249.915 101.762 249.962 101.564 250.09C101.374 250.219 101.261 250.427 101.226 250.714C101.201 250.915 101.245 251.091 101.357 251.243C101.477 251.389 101.629 251.516 101.812 251.626C102.003 251.73 102.271 251.857 102.616 252.009C103.086 252.212 103.466 252.404 103.756 252.585C104.047 252.766 104.286 253.014 104.473 253.328C104.659 253.642 104.724 254.031 104.667 254.497C104.618 254.898 104.468 255.258 104.218 255.577C103.968 255.895 103.63 256.134 103.203 256.292C102.777 256.444 102.288 256.485 101.736 256.418ZM108.286 257.222C107.763 257.158 107.301 257.01 106.901 256.779C106.507 256.549 106.209 256.25 106.007 255.884C105.804 255.517 105.728 255.104 105.777 254.644L107.389 254.842C107.373 255.153 107.451 255.41 107.622 255.613C107.801 255.817 108.062 255.94 108.406 255.982C108.757 256.025 109.043 255.976 109.264 255.836C109.486 255.689 109.613 255.479 109.647 255.207C109.674 254.985 109.628 254.794 109.51 254.634C109.391 254.473 109.233 254.341 109.035 254.237C108.845 254.126 108.577 253.999 108.231 253.855C107.761 253.651 107.381 253.463 107.089 253.289C106.806 253.109 106.57 252.865 106.382 252.558C106.203 252.245 106.142 251.852 106.2 251.379C106.254 250.935 106.413 250.562 106.675 250.259C106.938 249.957 107.281 249.745 107.703 249.622C108.126 249.492 108.596 249.459 109.112 249.522C109.886 249.617 110.489 249.884 110.923 250.323C111.364 250.755 111.569 251.311 111.536 251.991L109.881 251.788C109.898 251.528 109.813 251.303 109.626 251.113C109.446 250.916 109.188 250.797 108.851 250.756C108.557 250.72 108.312 250.766 108.114 250.894C107.924 251.024 107.811 251.232 107.776 251.518C107.751 251.719 107.795 251.895 107.907 252.047C108.027 252.193 108.179 252.321 108.362 252.43C108.553 252.534 108.821 252.661 109.166 252.813C109.636 253.016 110.016 253.208 110.306 253.389C110.597 253.57 110.836 253.818 111.023 254.132C111.21 254.446 111.274 254.836 111.217 255.301C111.168 255.703 111.018 256.063 110.768 256.381C110.518 256.699 110.18 256.938 109.753 257.096C109.327 257.248 108.838 257.29 108.286 257.222ZM116.984 254.307C117.397 254.438 117.719 254.692 117.949 255.07C118.179 255.447 118.267 255.858 118.212 256.302C118.163 256.703 118.019 257.046 117.781 257.329C117.55 257.607 117.238 257.808 116.844 257.934C116.451 258.061 115.999 258.093 115.491 258.03L112.255 257.633L113.176 250.13L116.272 250.51C116.781 250.573 117.208 250.709 117.553 250.919C117.905 251.129 118.157 251.393 118.307 251.709C118.464 252.027 118.52 252.372 118.474 252.745C118.421 253.182 118.258 253.533 117.985 253.798C117.72 254.063 117.386 254.233 116.984 254.307ZM114.301 253.411L115.677 253.58C116.035 253.624 116.321 253.579 116.534 253.445C116.747 253.304 116.873 253.083 116.91 252.782C116.947 252.481 116.879 252.236 116.705 252.047C116.532 251.859 116.266 251.743 115.908 251.699L114.532 251.53L114.301 253.411ZM115.426 256.778C115.792 256.823 116.085 256.772 116.307 256.625C116.536 256.478 116.67 256.247 116.708 255.932C116.748 255.61 116.671 255.346 116.478 255.14C116.286 254.927 116.007 254.799 115.642 254.754L114.159 254.572L113.911 256.592L115.426 256.778ZM123.938 257.616L120.95 257.249L120.28 258.618L118.7 258.424L122.32 251.242L124.072 251.457L125.848 259.302L124.257 259.106L123.938 257.616ZM123.678 256.362L122.977 253.09L121.506 256.096L123.678 256.362ZM130.726 259.901L129.43 256.774L128.72 256.687L128.361 259.61L126.856 259.426L127.778 251.923L130.594 252.269C131.174 252.34 131.656 252.505 132.039 252.763C132.423 253.013 132.693 253.327 132.851 253.702C133.016 254.072 133.073 254.472 133.02 254.902C132.959 255.396 132.761 255.826 132.425 256.192C132.09 256.551 131.63 256.771 131.046 256.852L132.467 260.115L130.726 259.901ZM128.859 255.558L130.116 255.713C130.525 255.763 130.841 255.703 131.066 255.535C131.291 255.359 131.425 255.095 131.468 254.744C131.51 254.4 131.443 254.122 131.265 253.911C131.088 253.693 130.795 253.559 130.387 253.509L129.129 253.355L128.859 255.558Z" fill="#3D6C76"/>
<rect x="425.924" y="43" width="75.1746" height="23.1647" rx="7.6748" transform="rotate(20 425.924 43)" fill="#D2B6F3"/>
<path d="M440.251 56.2834L439.833 57.4333L437.94 56.7444L435.773 62.6976L434.349 62.179L436.515 56.2259L434.623 55.5369L435.041 54.387L440.251 56.2834ZM442.297 58.3302L441.649 60.1111L444.04 60.9815L443.629 62.1111L441.238 61.2407L440.553 63.1233L443.249 64.1048L442.827 65.2649L438.706 63.7649L441.295 56.6516L445.416 58.1516L444.994 59.3117L442.297 58.3302ZM447.785 67.0696L447.226 63.7312L446.554 63.4867L445.546 66.2547L444.122 65.7362L446.707 58.6331L449.373 59.6035C449.923 59.8035 450.355 60.0722 450.67 60.4097C450.988 60.7404 451.181 61.1066 451.25 61.5081C451.328 61.9054 451.293 62.3075 451.145 62.7146C450.975 63.1827 450.685 63.5573 450.275 63.8385C449.868 64.1129 449.37 64.2237 448.783 64.1711L449.434 67.6696L447.785 67.0696ZM446.943 62.4182L448.133 62.8516C448.52 62.9923 448.842 63.0057 449.098 62.8916C449.358 62.7708 449.548 62.5442 449.669 62.2118C449.787 61.8861 449.783 61.6005 449.658 61.355C449.534 61.1027 449.279 60.9062 448.893 60.7654L447.702 60.3321L446.943 62.4182ZM460.971 63.8245L458.385 70.9276L456.961 70.4091L458.642 65.789L455.058 69.7165L453.979 69.3239L453.747 64.0074L452.066 68.6275L450.641 68.109L453.226 61.0059L454.844 61.5948L455.181 67.6986L459.363 63.2393L460.971 63.8245ZM463.804 64.8557L461.218 71.9589L459.794 71.4403L462.379 64.3372L463.804 64.8557ZM468.701 74.6824L467.277 74.1639L465.825 68.1152L464.051 72.9897L462.626 72.4712L465.215 65.3579L466.64 65.8764L468.088 71.9352L469.866 67.0506L471.29 67.5691L468.701 74.6824ZM474.957 75.4267L472.128 74.397L471.168 75.5801L469.672 75.0356L474.815 68.852L476.474 69.4557L476.439 77.4987L474.933 76.9505L474.957 75.4267ZM474.986 74.1462L475.039 70.8006L472.93 73.398L474.986 74.1462ZM479.23 77.2351L481.57 78.087L481.159 79.2166L477.394 77.8462L479.979 70.7431L481.404 71.2616L479.23 77.2351Z" fill="#0A6850"/>
<rect x="278.568" y="253.269" width="85.83" height="23.1647" rx="7.6748" fill="#AB035F"/>
<path d="M309.355 260.85V262.073H306.204V264.012H308.619V265.214H306.204V268.409H304.688V260.85H309.355ZM311.946 260.85V268.409H310.43V260.85H311.946ZM318.707 263.124C318.534 262.806 318.296 262.564 317.993 262.398C317.689 262.232 317.336 262.149 316.931 262.149C316.484 262.149 316.087 262.25 315.74 262.452C315.394 262.655 315.123 262.943 314.928 263.319C314.733 263.694 314.636 264.127 314.636 264.618C314.636 265.124 314.733 265.564 314.928 265.939C315.13 266.315 315.408 266.604 315.762 266.806C316.116 267.008 316.527 267.109 316.996 267.109C317.574 267.109 318.047 266.957 318.415 266.654C318.783 266.344 319.025 265.914 319.141 265.366H316.542V264.207H320.635V265.528C320.534 266.055 320.317 266.542 319.985 266.99C319.653 267.438 319.224 267.799 318.697 268.073C318.177 268.34 317.592 268.474 316.942 268.474C316.213 268.474 315.552 268.311 314.96 267.986C314.376 267.654 313.914 267.196 313.574 266.611C313.242 266.026 313.076 265.362 313.076 264.618C313.076 263.875 313.242 263.21 313.574 262.626C313.914 262.034 314.376 261.575 314.96 261.25C315.552 260.918 316.209 260.752 316.931 260.752C317.783 260.752 318.523 260.962 319.151 261.38C319.78 261.792 320.213 262.373 320.451 263.124H318.707ZM329.998 260.85V268.409H328.482V263.492L326.457 268.409H325.309L323.273 263.492V268.409H321.757V260.85H323.479L325.883 266.47L328.287 260.85H329.998ZM336.132 266.968H333.121L332.623 268.409H331.031L333.749 260.839H335.515L338.233 268.409H336.63L336.132 266.968ZM335.72 265.755L334.627 262.593L333.533 265.755H335.72Z" fill="#FEA3E3"/>
<line x1="102.54" y1="241.803" x2="129.54" y2="178.803" stroke="#A7CBC9"/>
<line x1="203.5" y1="231.99" x2="204.5" y2="180.99" stroke="#F58602"/>
<line x1="308.56" y1="255.238" x2="268.56" y2="181.238" stroke="#AB035F"/>
<line x1="407.504" y1="234.065" x2="400.504" y2="181.065" stroke="#48EDBC"/>
<line x1="270.494" y1="77.0793" x2="261.494" y2="133.079" stroke="#E52D92"/>
<line x1="61.2672" y1="46.5774" x2="197.267" y2="132.577" stroke="#1368B8"/>
<line x1="348.492" y1="28.9096" x2="364.492" y2="115.91" stroke="#3EA231"/>
<line x1="448.424" y1="74.2656" x2="411.424" y2="133.266" stroke="#D2B6F3"/>
<line x1="204.5" y1="41.9945" x2="205.5" y2="132.995" stroke="#F52E08"/>
<path d="M446.452 166.156C445.57 163.27 448.27 160.57 451.156 161.452L473.975 168.432C477.22 169.425 477.601 173.865 474.572 175.396L466.261 179.597C465.543 179.96 464.961 180.543 464.598 181.26L460.396 189.572C458.865 192.601 454.425 192.22 453.432 188.975L446.452 166.156Z" fill="#FCA043"/>
<circle cx="508" cy="91" r="6" fill="#8BFF47"/>
<circle cx="502" cy="117" r="14" fill="#FFF5A6"/>
<circle cx="14" cy="66" r="14" fill="#FFF5A6"/>
<circle cx="39.5" cy="93.5" r="3.5" fill="#A0CAFF"/>
<circle cx="49.5" cy="190.5" r="11.5" fill="#F6B0EA"/>
<circle cx="31.5" cy="170.5" r="6.5" fill="#3C79DE"/>
<path d="M50 147L50.6798 151.127C51.2879 154.819 54.1812 157.712 57.8727 158.32L62 159L57.8727 159.68C54.1812 160.288 51.2879 163.181 50.6798 166.873L50 171L49.3202 166.873C48.7121 163.181 45.8188 160.288 42.1273 159.68L38 159L42.1273 158.32C45.8188 157.712 48.7121 154.819 49.3202 151.127L50 147Z" fill="#E8FD82"/>
<path d="M162.5 18L164.692 30.4494L178 32.5L164.692 34.5506L162.5 47L160.308 34.5506L147 32.5L160.308 30.4494L162.5 18Z" fill="#1FDC1F"/>
<path d="M350.5 232L352.692 244.449L366 246.5L352.692 248.551L350.5 261L348.308 248.551L335 246.5L348.308 244.449L350.5 232Z" fill="#1FDC1F"/>
<path d="M42.5 61L42.7452 67.0118C42.8952 70.6898 46.143 73.6394 50.1908 73.7739L57 74L50.1908 74.2261C46.143 74.3606 42.8952 77.3102 42.7452 80.9882L42.5 87L42.2548 80.9882C42.1048 77.3102 38.857 74.3606 34.8092 74.2261L28 74L34.8092 73.7739C38.857 73.6394 42.1048 70.6898 42.2548 67.0118L42.5 61Z" fill="#FF4747"/>
<path d="M49.6533 62.7417L46.5577 68.0594C44.6638 71.3128 45.8534 75.3429 49.2848 77.2983L55.0574 80.5878L49.036 77.69C45.4565 75.9674 41.0208 77.0463 38.867 80.1634L35.3467 85.2583L38.4423 79.9406C40.3362 76.6872 39.1466 72.6571 35.7152 70.7017L29.9426 67.4122L35.964 70.31C39.5435 72.0326 43.9792 70.9537 46.133 67.8366L49.6533 62.7417Z" fill="#FF4747"/>
<path d="M54.8899 67.5L49.2829 70.6988C45.8525 72.6559 44.6652 76.6865 46.5609 79.939L49.75 85.4105L46.1299 80.1652C43.9779 77.0471 39.5427 75.9661 35.9623 77.6871L30.1101 80.5L35.7171 77.3012C39.1475 75.3441 40.3348 71.3135 38.4391 68.061L35.25 62.5895L38.8701 67.8348C41.0221 70.9529 45.4573 72.0339 49.0377 70.3129L54.8899 67.5Z" fill="#FF4747"/>
</svg>
